<svg width="200" height="21" fill="none" xmlns="http://www.w3.org/2000/svg"><path d="M7.48 14.548h.396V.6h2.904V16H5.104L3.3 2.052h-.396V16H0V.6h5.676L7.48 14.548zM14.065.6h9.856v2.772h-6.952v3.52h6.82v2.772h-6.82V16h-2.904V.6zm12.722 0h11.088v2.772h-4.092V16H30.88V3.372h-4.092V.6zm26.238 0h5.104l.88 11.572v2.244h.528v-2.244L60.417.6h5.104V16h-2.64V5.704l.264-3.52h-.528L61.473 16h-4.356L55.929 2.184H55.4l.264 3.52V16h-2.64V.6zM74.79 14.416c-.294.689-.705 1.18-1.233 1.474-.528.278-1.144.418-1.847.418-.66 0-1.284-.125-1.87-.374a4.429 4.429 0 01-1.519-1.1 5.517 5.517 0 01-1.055-1.76c-.25-.69-.375-1.474-.375-2.354v-.352c0-.866.125-1.643.374-2.332.25-.69.587-1.276 1.013-1.76a4.264 4.264 0 011.473-1.1 4.305 4.305 0 011.826-.396c.778 0 1.401.132 1.87.396.484.264.866.674 1.144 1.232h.397v-1.32h2.772V12.7c0 .44.197.66.593.66h.419V16h-1.893c-.498 0-.909-.147-1.232-.44-.308-.294-.462-.675-.462-1.144h-.395zm-2.465-.748c.807 0 1.453-.264 1.936-.792.485-.543.727-1.276.727-2.2v-.264c0-.924-.242-1.65-.727-2.178-.483-.543-1.129-.814-1.935-.814-.807 0-1.452.27-1.936.814-.484.528-.727 1.254-.727 2.178v.264c0 .924.243 1.657.727 2.2.484.528 1.129.792 1.936.792zm8.345-8.58h4.62v1.584h.396c.205-.602.55-1.064 1.034-1.386.499-.338 1.093-.506 1.782-.506 1.086 0 1.958.344 2.618 1.034.66.674.99 1.708.99 3.102V9.4l-2.86.264v-.308c0-.602-.154-1.078-.462-1.43-.308-.367-.77-.55-1.386-.55-.616 0-1.1.212-1.452.638-.352.425-.528 1.034-.528 1.826v3.52h2.508V16h-7.524v-2.64h2.244V7.728h-1.98v-2.64zm17.65 4.004h.529l2.904-4.004h3.036v.132l-3.52 4.994v.396l3.872 5.258V16h-3.168l-3.124-4.268h-.528V16h-2.772V.6h2.772v8.492zm12.262 2.354c.014.322.088.623.22.902.146.264.337.498.572.704.249.19.528.344.836.462.322.102.66.154 1.012.154.689 0 1.217-.118 1.584-.352.366-.25.63-.543.792-.88l2.376 1.32a5.055 5.055 0 01-.55.88 3.917 3.917 0 01-.924.814c-.367.249-.822.454-1.364.616-.528.16-1.152.242-1.87.242-.822 0-1.57-.132-2.244-.396a5.063 5.063 0 01-1.76-1.144 5.363 5.363 0 01-1.144-1.826c-.264-.72-.396-1.533-.396-2.442v-.132c0-.836.139-1.6.418-2.288a5.314 5.314 0 011.188-1.76 5.282 5.282 0 011.738-1.122 5.588 5.588 0 012.156-.418c.938 0 1.745.168 2.42.506.674.322 1.232.74 1.672 1.254a4.81 4.81 0 01.968 1.672c.205.6.308 1.188.308 1.76v1.474h-8.008zm2.618-4.158c-.704 0-1.276.183-1.716.55-.44.352-.726.762-.858 1.232h5.148c-.088-.514-.367-.94-.836-1.276-.455-.338-1.034-.506-1.738-.506zm8.102-2.2h3.234V.6h2.772v4.488h3.938v2.64h-3.938V12.7c0 .44.198.66.594.66h2.948V16h-4.62c-.498 0-.909-.162-1.232-.484-.308-.323-.462-.734-.462-1.232V7.728h-3.234v-2.64zM137.281 20.4h-2.772V5.088h2.772v1.584h.396a3.16 3.16 0 011.276-1.386c.557-.338 1.269-.506 2.134-.506a4.51 4.51 0 011.826.374 4.159 4.159 0 011.518 1.1c.44.469.785 1.048 1.034 1.738.264.689.396 1.474.396 2.354v.396c0 .894-.125 1.686-.374 2.376a5.432 5.432 0 01-1.012 1.76 4.294 4.294 0 01-1.518 1.078 4.878 4.878 0 01-1.87.352c-.499 0-.931-.052-1.298-.154a3.641 3.641 0 01-.968-.418 3.375 3.375 0 01-.682-.594 5.498 5.498 0 01-.462-.726h-.396V20.4zm2.904-6.732c.865 0 1.562-.264 2.09-.792.543-.543.814-1.276.814-2.2v-.264c0-.924-.271-1.65-.814-2.178-.528-.543-1.225-.814-2.09-.814-.865 0-1.569.278-2.112.836-.528.542-.792 1.26-.792 2.156v.264c0 .894.264 1.62.792 2.178.543.542 1.247.814 2.112.814zm8.301-.308h3.828V3.24h-3.696V.6h6.468v12.76h3.564V16h-10.164v-2.64zm20.598 1.056c-.293.689-.704 1.18-1.232 1.474-.528.278-1.144.418-1.848.418-.66 0-1.283-.125-1.87-.374a4.429 4.429 0 01-1.518-1.1 5.517 5.517 0 01-1.056-1.76c-.249-.69-.374-1.474-.374-2.354v-.352c0-.866.125-1.643.374-2.332.25-.69.587-1.276 1.012-1.76a4.277 4.277 0 011.474-1.1 4.306 4.306 0 011.826-.396c.778 0 1.401.132 1.87.396.484.264.866.674 1.144 1.232h.396v-1.32h2.772V12.7c0 .44.198.66.594.66h.418V16h-1.892c-.498 0-.909-.147-1.232-.44-.308-.294-.462-.675-.462-1.144h-.396zm-2.464-.748c.807 0 1.452-.264 1.936-.792.484-.543.726-1.276.726-2.2v-.264c0-.924-.242-1.65-.726-2.178-.484-.543-1.129-.814-1.936-.814-.806 0-1.452.27-1.936.814-.484.528-.726 1.254-.726 2.178v.264c0 .924.242 1.657.726 2.2.484.528 1.13.792 1.936.792zm19.521-1.672c-.249 1.29-.843 2.332-1.782 3.124-.924.792-2.163 1.188-3.718 1.188a6.738 6.738 0 01-2.266-.374 5.325 5.325 0 01-1.804-1.078 4.937 4.937 0 01-1.21-1.738c-.293-.69-.44-1.474-.44-2.354V10.5c0-.88.147-1.672.44-2.376a5.349 5.349 0 011.21-1.804 5.496 5.496 0 011.826-1.144 6.338 6.338 0 012.244-.396c1.525 0 2.757.396 3.696 1.188.953.792 1.555 1.833 1.804 3.124l-2.728.704a2.855 2.855 0 00-.836-1.672c-.469-.47-1.129-.704-1.98-.704-.396 0-.77.073-1.122.22a2.68 2.68 0 00-.924.638 2.951 2.951 0 00-.638.99c-.147.38-.22.814-.22 1.298v.132c0 .484.073.916.22 1.298.161.366.374.674.638.924.264.249.572.44.924.572.352.117.726.176 1.122.176.851 0 1.496-.213 1.936-.638.455-.426.748-.998.88-1.716l2.728.682zm5.265-.55c.015.322.088.623.22.902.147.264.337.498.572.704.249.19.528.344.836.462.323.102.66.154 1.012.154.689 0 1.217-.118 1.584-.352.367-.25.631-.543.792-.88l2.376 1.32a4.996 4.996 0 01-.55.88 3.917 3.917 0 01-.924.814c-.367.249-.821.454-1.364.616-.528.16-1.151.242-1.87.242-.821 0-1.569-.132-2.244-.396a5.073 5.073 0 01-1.76-1.144 5.378 5.378 0 01-1.144-1.826c-.264-.72-.396-1.533-.396-2.442v-.132c0-.836.139-1.6.418-2.288a5.314 5.314 0 011.188-1.76 5.292 5.292 0 011.738-1.122 5.591 5.591 0 012.156-.418c.939 0 1.745.168 2.42.506.675.322 1.232.74 1.672 1.254.44.498.763 1.056.968 1.672.205.6.308 1.188.308 1.76v1.474h-8.008zm2.618-4.158c-.704 0-1.276.183-1.716.55-.44.352-.726.762-.858 1.232h5.148c-.088-.514-.367-.94-.836-1.276-.455-.338-1.034-.506-1.738-.506z" fill="#fff"/></svg>