<?xml version="1.0" standalone="no"?>
<!DOCTYPE svg PUBLIC "-//W3C//DTD SVG 1.1//EN" "http://www.w3.org/Graphics/SVG/1.1/DTD/svg11.dtd" >
<svg xmlns="http://www.w3.org/2000/svg">
<metadata>Generated by IcoMoon</metadata>
<defs>
<font id="icomoon" horiz-adv-x="1024">
<font-face units-per-em="1024" ascent="960" descent="-64" />
<missing-glyph horiz-adv-x="1024" />
<glyph unicode="&#x20;" horiz-adv-x="512" d="" />
<glyph unicode="&#xe900;" glyph-name="TrendUp" d="M950.627 758.628c12.496-12.497 12.496-32.758 0-45.255l-384-384c-12.496-12.496-32.758-12.496-45.254 0l-137.373 137.373-265.372-265.373c-12.497-12.496-32.758-12.496-45.255 0s-12.497 32.758 0 45.254l288 288c12.496 12.496 32.758 12.496 45.254 0l137.373-137.373 361.373 361.373c12.496 12.497 32.758 12.497 45.254 0zM640 736c0 17.673 14.326 32 32 32h256c17.674 0 32-14.327 32-32v-256c0-17.674-14.326-32-32-32s-32 14.326-32 32v224h-224c-17.674 0-32 14.327-32 32z" />
<glyph unicode="&#xe902;" glyph-name="User" d="M512 800c-123.712 0-224-100.288-224-224s100.288-224 224-224c123.712 0 224 100.288 224 224s-100.288 224-224 224zM224 576c0 159.058 128.941 288 288 288s288-128.942 288-288c0-159.059-128.941-288-288-288s-288 128.941-288 288zM511.997 288.032c-73.030 0-144.771-19.226-208.016-55.744s-115.76-89.040-152.269-152.291c-8.835-15.306-28.405-20.55-43.712-11.715s-20.552 28.406-11.717 43.712c42.126 72.979 102.721 133.584 175.695 175.718 72.975 42.138 155.753 64.32 240.019 64.32s167.046-22.182 240.019-64.32c72.976-42.134 133.571-102.739 175.696-175.718 8.835-15.306 3.59-34.877-11.718-43.712-15.306-8.835-34.874-3.59-43.709 11.715-36.512 63.251-89.027 115.773-152.272 152.291-63.242 36.518-134.986 55.744-208.016 55.744z" />
<glyph unicode="&#xe903;" glyph-name="UserCircle" d="M512 800c-194.404 0-352-157.596-352-352s157.596-352 352-352c194.403 0 352 157.597 352 352s-157.597 352-352 352zM96 448c0 229.75 186.25 416 416 416s416-186.25 416-416c0-229.75-186.25-416-416-416s-416 186.25-416 416zM512 608c-70.691 0-128-57.309-128-128s57.309-128 128-128c70.691 0 128 57.309 128 128s-57.309 128-128 128zM320 480c0 106.038 85.962 192 192 192s192-85.962 192-192c0-106.038-85.962-192-192-192s-192 85.962-192 192zM512.010 288.032c-47.274 0-93.626-13.091-133.917-37.821-40.291-24.733-72.948-60.138-94.349-102.291-8.001-15.757-27.261-22.048-43.020-14.048-15.758 8.003-22.048 27.261-14.047 43.021 26.751 52.691 67.572 96.947 117.934 127.862 50.365 30.912 108.304 47.277 167.398 47.277s117.034-16.365 167.398-47.277c50.365-30.915 91.184-75.171 117.936-127.862 8-15.76 1.712-35.018-14.048-43.021-15.76-8-35.018-1.709-43.021 14.048-21.398 42.154-54.054 77.558-94.346 102.291-40.291 24.73-86.643 37.821-133.92 37.821z" />
<glyph unicode="&#xe904;" glyph-name="Wallet" d="M224 736c-8.487 0-16.626-3.372-22.628-9.372s-9.372-14.14-9.372-22.628c0-8.487 3.372-16.626 9.372-22.628s14.14-9.372 22.628-9.372h640c16.973 0 33.251-6.743 45.254-18.745s18.746-28.282 18.746-45.255v-448c0-16.973-6.742-33.251-18.746-45.254s-28.282-18.746-45.254-18.746h-640c-25.461 0-49.879 10.115-67.882 28.118s-28.118 42.419-28.118 67.882v512c0 25.461 10.114 49.879 28.118 67.882s42.421 28.118 67.882 28.118h544c17.674 0 32-14.327 32-32s-14.326-32-32-32h-544zM192 613.491v-421.491c0-8.486 3.372-16.627 9.372-22.627s14.14-9.373 22.628-9.373h640v448h-640c-11.006 0-21.818 1.891-32 5.491zM720 336c26.509 0 48 21.491 48 48s-21.491 48-48 48c-26.509 0-48-21.491-48-48s21.491-48 48-48z" />
<glyph unicode="&#xe905;" glyph-name="YoutubeLogo" d="M432.899 604.214c10.406 5.568 23.030 4.957 32.851-1.59l192-128c8.902-5.933 14.25-15.923 14.25-26.624s-5.347-20.691-14.25-26.627l-192-128c-9.821-6.544-22.445-7.155-32.851-1.587-10.403 5.568-16.899 16.413-16.899 28.214v256c0 11.802 6.496 22.646 16.899 28.214zM480 516.208v-136.416l102.31 68.208-102.31 68.208zM511.952 798.405l2.646 0.001c1.744-0.004 4.282-0.017 7.542-0.051 6.518-0.069 15.92-0.226 27.6-0.577 23.341-0.701 55.872-2.177 92.701-5.287 72.845-6.15 165.581-18.914 236.979-46.194l0.47-0.184c14.026-5.614 26.534-14.445 36.518-25.782s17.165-24.861 20.963-39.483l0.032-0.12c9.965-38.994 22.595-111.304 22.595-232.724 0-121.418-12.63-193.728-22.595-232.723l-0.032-0.118c-3.798-14.624-10.979-28.147-20.963-39.485-9.984-11.334-22.493-20.166-36.518-25.779l-0.47-0.186c-71.398-27.28-164.134-40.045-236.979-46.195-36.829-3.107-69.36-4.586-92.701-5.286-11.68-0.349-21.082-0.506-27.6-0.576-3.261-0.035-5.798-0.048-7.542-0.051h-5.197c-1.744 0.003-4.282 0.016-7.542 0.051-6.518 0.070-15.92 0.227-27.6 0.576-23.341 0.701-55.872 2.179-92.701 5.286-72.844 6.15-165.581 18.915-236.98 46.195l-0.47 0.186c-14.025 5.613-26.534 14.445-36.518 25.779-9.985 11.338-17.165 24.861-20.962 39.485l-0.031 0.118c-9.965 38.995-22.596 111.306-22.596 232.723 0 121.421 12.631 193.731 22.596 232.724l0.031 0.12c3.797 14.622 10.978 28.146 20.962 39.483s22.494 20.168 36.518 25.782l0.47 0.184c71.398 27.281 164.136 40.044 236.98 46.194 36.829 3.109 69.36 4.586 92.701 5.287 11.68 0.35 21.082 0.508 27.6 0.577 3.261 0.035 5.798 0.047 7.542 0.051l2.551-0.001zM511.83 161.603l0.342 0.003 0.102-0.003h2.179c1.574 0.003 3.933 0.016 7.008 0.048 6.144 0.064 15.133 0.214 26.358 0.55 22.47 0.675 53.814 2.099 89.238 5.088 71.552 6.042 156.672 18.253 219.248 42.102 4.634 1.891 8.768 4.829 12.074 8.586 3.344 3.798 5.754 8.326 7.034 13.219 8.435 33.030 20.586 99.91 20.586 216.806 0 116.899-12.15 183.779-20.586 216.808-1.28 4.895-3.69 9.422-7.034 13.219-3.306 3.756-7.44 6.695-12.074 8.585-62.576 23.851-147.696 36.061-219.248 42.102-35.424 2.991-66.768 4.414-89.238 5.089-11.226 0.337-20.214 0.486-26.358 0.551-3.075 0.033-5.434 0.044-7.008 0.048h-4.908c-1.574-0.004-3.933-0.015-7.008-0.048-6.144-0.065-15.133-0.214-26.358-0.551-22.47-0.675-53.814-2.098-89.238-5.089-71.552-6.041-156.672-18.251-219.248-42.102-4.633-1.89-8.766-4.828-12.075-8.585-3.344-3.797-5.752-8.324-7.032-13.219-8.434-33.032-20.586-99.909-20.586-216.808 0-116.896 12.151-183.776 20.586-216.806 1.28-4.893 3.688-9.421 7.032-13.219 3.308-3.757 7.442-6.694 12.074-8.586 62.577-23.85 147.697-36.061 219.249-42.102 35.424-2.989 66.768-4.413 89.238-5.088 11.226-0.336 20.214-0.486 26.358-0.55 3.075-0.032 5.434-0.045 7.008-0.048h2.285z" />
<glyph unicode="&#xe906;" glyph-name="Plus" d="M128 448c0 17.674 14.327 32 32 32h704c17.674 0 32-14.326 32-32s-14.326-32-32-32h-704c-17.673 0-32 14.326-32 32zM512 832c17.674 0 32-14.327 32-32v-704c0-17.674-14.326-32-32-32s-32 14.326-32 32v704c0 17.673 14.326 32 32 32z" />
<glyph unicode="&#xe907;" glyph-name="Rocket" d="M416 64c0 17.674 14.326 32 32 32h128c17.674 0 32-14.326 32-32s-14.326-32-32-32h-128c-17.674 0-32 14.326-32 32zM471.786 905.619c11.318 9.334 25.533 14.443 40.211 14.443 14.73 0 28.995-5.145 40.333-14.541 39.731-32.358 125.747-112.579 173.334-236.272 48.278-125.489 55.635-292.375-57.811-492.993-5.677-10.038-16.32-16.246-27.856-16.246h-256c-11.434 0-22.003 6.102-27.715 16.010-115.768 200.662-108.679 367.792-59.863 493.476 48.052 123.716 135.156 203.917 175.367 236.124zM511.997 855.828l-0.010-0.007c-35.888-28.711-113.552-100.443-155.91-209.498-40.468-104.189-50.047-245.654 46.64-422.314h218.374c94.643 176.592 84.941 318.026 44.842 422.26-41.885 108.867-118.323 180.542-153.936 209.559zM316.11 538.966c13.564-11.328 15.378-31.507 4.050-45.072l-125.338-150.086c0.008-0.035 0.015-0.067 0.023-0.102l49.178-222.701 119.983 95.987c13.802 11.040 33.939 8.803 44.979-4.995 11.040-13.802 8.803-33.939-4.998-44.979l-119.999-96c-8.48-6.774-18.56-11.296-29.262-13.11s-21.69-0.88-31.93 2.72c-10.24 3.6-19.397 9.747-26.608 17.859s-12.241 17.926-14.615 28.518l-0.022 0.099-49.117 222.429c-2.305 9.517-2.339 19.443-0.095 28.982 2.267 9.635 6.794 18.592 13.206 26.131l125.492 150.272c11.328 13.565 31.508 15.376 45.073 4.048zM705.517 542.176c13.574 11.315 33.754 9.478 45.069-4.096l127.882-153.462c6.406-7.536 10.928-16.486 13.194-26.115 2.243-9.539 2.211-19.466-0.096-28.982l-49.139-222.528c-2.374-10.592-7.405-20.406-14.614-28.518-7.213-8.112-16.368-14.259-26.608-17.859s-21.229-4.534-31.93-2.72c-10.704 1.814-20.768 6.323-29.248 13.098l-120.016 96.013c-13.798 11.040-16.035 31.178-4.995 44.979 11.040 13.798 31.178 16.038 44.976 4.995l119.987-95.987 49.178 222.701c0.006 0.035 0.013 0.070 0.022 0.102l-127.76 153.312c-11.312 13.578-9.478 33.754 4.099 45.069zM512 528c26.509 0 48 21.491 48 48s-21.491 48-48 48c-26.509 0-48-21.491-48-48s21.491-48 48-48z" />
<glyph unicode="&#xe908;" glyph-name="RocketLaunch" d="M315.931 322.598c5.634-16.752-3.38-34.899-20.131-40.531-54.242-18.24-83.069-63.776-98.489-110.080-6.123-18.387-9.822-36.086-12.045-50.723 14.636 2.221 32.337 5.92 50.724 12.045 46.304 15.418 91.837 44.246 110.081 98.49 5.632 16.749 23.779 25.763 40.528 20.131 16.752-5.635 25.766-23.779 20.131-40.531-27.357-81.357-95.023-120.333-150.519-138.813-28.035-9.334-54.28-13.942-73.436-16.24-9.625-1.155-17.581-1.741-23.234-2.038-2.829-0.15-5.091-0.227-6.705-0.266-0.807-0.022-1.453-0.032-1.929-0.038l-0.584-0.003-0.194-0.003h-0.102c-0.013 0-0.026 0-0.026 32-32 0-32 0.013-32 0.026v0.102l0.001 0.195 0.005 0.582c0.006 0.477 0.017 1.123 0.036 1.93 0.040 1.613 0.117 3.875 0.266 6.704 0.297 5.654 0.883 13.61 2.037 23.235 2.298 19.155 6.907 45.402 16.243 73.437 18.48 55.494 57.453 123.162 138.811 150.522 16.751 5.632 34.897-3.382 40.531-20.131zM150 85.997h-32c0-17.674 14.327-32 32-32v32zM847.162 783.171c5.357-37.143 7.376-128.57-86.192-222.14l-248.973-248.97-135.946 135.942 248.973 248.974c93.568 93.569 184.995 91.55 222.138 86.194zM856.442 846.495c-51.082 7.396-164.95 7.46-276.672-104.263l-271.6-271.602c-6.001-6-9.373-14.138-9.373-22.627 0-8.486 3.372-16.624 9.373-22.627l181.2-181.2c12.496-12.496 32.758-12.496 45.254 0l271.6 271.6c111.722 111.725 111.658 225.592 104.262 276.674-1.872 13.672-8.166 26.357-17.926 36.117s-22.445 16.055-36.118 17.927zM738.4 525.187c17.67 0 32-14.326 32-32v-258.4l-0.006-0.454c-0.237-16.81-7.082-32.845-19.043-44.646l-129.139-129.539c-8.195-8.189-18.464-13.997-29.706-16.81-11.238-2.81-23.034-2.515-34.118 0.851-11.088 3.37-21.053 9.683-28.832 18.269-7.773 8.579-13.075 19.107-15.338 30.464 0 0.010 0.003-0.010 0 0l-33.594 167.574c-3.475 17.331 7.757 34.192 25.085 37.667s34.192-7.757 37.664-25.085l33.61-167.651 129.414 129.814v257.946c0 17.674 14.33 32 32.003 32zM298.341 706.403l0.456 0.004h258.4c17.674 0 32-14.327 32-32s-14.326-32-32-32h-257.947l-0.259-0.264-0.002 0.002-129.502-129.162 167.601-33.6c17.328-3.475 28.56-20.339 25.085-37.667s-20.336-28.56-37.667-25.085l-167.549 33.59c-0.010 0.003-0.019 0.003-0.029 0.006-11.353 2.262-21.881 7.562-30.46 15.334-8.587 7.779-14.901 17.744-18.268 28.832s-3.661 22.88-0.851 34.122c2.81 11.242 8.62 21.507 16.808 29.706l0.048 0.048 129.49 129.090c11.802 11.962 27.838 18.804 44.647 19.044z" />
<glyph unicode="&#xe909;" glyph-name="Storefront" d="M192 561.594c17.673 0 32-14.326 32-32v-401.6h576v401.6c0 17.674 14.326 32 32 32s32-14.326 32-32v-401.6c0-16.973-6.742-33.251-18.746-45.254s-28.282-18.746-45.254-18.746h-576c-16.974 0-33.252 6.742-45.255 18.746s-18.745 28.282-18.745 45.254v401.6c0 17.674 14.327 32 32 32zM96 800c0 17.673 14.327 32 32 32h768c17.674 0 32-14.327 32-32s-14.326-32-32-32h-768c-17.673 0-32 14.327-32 32zM128 736c17.673 0 32-14.327 32-32v-64c0-25.459 10.114-49.878 28.118-67.882s42.421-28.118 67.882-28.118c25.461 0 49.879 10.115 67.882 28.118s28.118 42.422 28.118 67.882v64c0 17.673 14.326 32 32 32s32-14.327 32-32v-64c0-42.435-16.858-83.133-46.864-113.136-30.003-30.006-70.701-46.864-113.136-46.864s-83.131 16.858-113.137 46.864c-30.006 30.003-46.863 70.701-46.863 113.136v64c0 17.673 14.327 32 32 32zM384 736c17.674 0 32-14.327 32-32v-64c0-25.459 10.115-49.878 28.118-67.882s42.422-28.118 67.882-28.118c25.459 0 49.878 10.115 67.882 28.118s28.118 42.422 28.118 67.882v64c0 17.673 14.326 32 32 32s32-14.327 32-32v-64c0-42.435-16.858-83.133-46.864-113.136-30.003-30.006-70.701-46.864-113.136-46.864s-83.133 16.858-113.136 46.864c-30.006 30.003-46.864 70.701-46.864 113.136v64c0 17.673 14.326 32 32 32zM640 736c17.674 0 32-14.327 32-32v-64c0-25.459 10.115-49.878 28.118-67.882s42.422-28.118 67.882-28.118c25.459 0 49.878 10.115 67.882 28.118s28.118 42.422 28.118 67.882v64c0 17.673 14.326 32 32 32s32-14.327 32-32v-64c0-42.435-16.858-83.133-46.864-113.136-30.003-30.006-70.701-46.864-113.136-46.864s-83.133 16.858-113.136 46.864c-30.006 30.003-46.864 70.701-46.864 113.136v64c0 17.673 14.326 32 32 32z" />
<glyph unicode="&#xe90a;" glyph-name="MagnifyingGlass" d="M464 800c-167.895 0-304-136.105-304-304s136.105-304 304-304c167.894 0 304 136.106 304 304s-136.106 304-304 304zM96 496c0 203.241 164.759 368 368 368s368-164.759 368-368c0-203.242-164.758-368-368-368s-368 164.758-368 368zM678.966 281.034c12.496 12.496 32.758 12.496 45.254 0l194.4-194.4c12.496-12.496 12.496-32.758 0-45.254s-32.758-12.496-45.254 0l-194.4 194.4c-12.496 12.496-12.496 32.758 0 45.254z" />
<glyph unicode="&#xe90b;" glyph-name="Eye" d="M145.372 614.627c76.283 76.283 195.984 153.373 366.628 153.373s290.346-77.090 366.627-153.373c38.048-38.048 65.485-76.042 83.453-104.576 8.998-14.294 15.667-26.285 20.141-34.829 2.24-4.272 3.933-7.69 5.094-10.106 0.582-1.21 1.034-2.17 1.354-2.861l0.384-0.835 0.118-0.266 0.042-0.093 0.016-0.035c0.006-0.016 0.013-0.032-29.229-13.027 29.242-12.995 29.235-13.011 29.229-13.027l-0.016-0.035-0.042-0.093-0.118-0.266-0.384-0.835c-0.32-0.691-0.771-1.651-1.354-2.861-1.162-2.416-2.854-5.834-5.094-10.106-4.474-8.544-11.142-20.534-20.141-34.829-17.968-28.534-45.405-66.528-83.453-104.576-76.282-76.282-195.984-153.373-366.627-153.373s-290.345 77.091-366.628 153.373c-38.049 38.048-65.485 76.042-83.452 104.576-8.999 14.294-15.668 26.285-20.142 34.829-2.238 4.272-3.931 7.69-5.095 10.106-0.582 1.21-1.032 2.17-1.352 2.861l-0.383 0.835-0.161 0.358-0.016 0.035c-0.007 0.016-0.013 0.032 29.229 13.027-29.242 12.995-29.236 13.011-29.229 13.027l0.016 0.035 0.161 0.358 0.383 0.835c0.32 0.691 0.77 1.651 1.352 2.861 1.164 2.416 2.857 5.834 5.095 10.106 4.475 8.544 11.143 20.534 20.142 34.829 17.966 28.534 45.403 66.528 83.452 104.576zM64 448l-29.242 12.995c-3.677-8.272-3.677-17.718 0-25.99l29.242 12.995zM99.78 448c3.765-7.053 9.171-16.627 16.3-27.949 16.034-25.466 40.597-59.472 74.548-93.424 67.717-67.718 172.016-134.627 321.372-134.627s253.654 66.909 321.373 134.627c33.952 33.952 58.515 67.958 74.547 93.424 7.13 11.322 12.534 20.896 16.301 27.949-3.766 7.053-9.171 16.627-16.301 27.949-16.032 25.466-40.595 59.472-74.547 93.424-67.718 67.718-172.016 134.627-321.373 134.627s-253.655-66.909-321.372-134.627c-33.951-33.952-58.515-67.958-74.548-93.424-7.129-11.322-12.535-20.896-16.3-27.949zM960 448l29.242-12.995c3.677 8.272 3.677 17.718 0 25.99l-29.242-12.995zM512 576c-70.691 0-128-57.309-128-128s57.309-128 128-128c70.691 0 128 57.309 128 128s-57.309 128-128 128zM320 448c0 106.038 85.962 192 192 192s192-85.962 192-192c0-106.038-85.962-192-192-192s-192 85.962-192 192z" />
<glyph unicode="&#xe90c;" glyph-name="EyeSlash" d="M170.475 823.678c13.077 11.888 33.316 10.924 45.204-2.152l639.998-703.999c11.891-13.078 10.925-33.315-2.15-45.203-13.078-11.891-33.315-10.925-45.203 2.15l-640.001 704.001c-11.888 13.077-10.924 33.316 2.152 45.204zM428.080 587.93c11.885-13.078 10.922-33.315-2.157-45.203-19.12-17.376-32.531-40.131-38.474-65.274-5.946-25.142-4.141-51.494 5.174-75.59 9.312-24.099 25.699-44.813 47.008-59.424 21.306-14.608 46.534-22.429 72.371-22.432h0.118c31.776-0.122 62.432 11.731 85.862 33.197 13.030 11.936 33.274 11.050 45.21-1.981 11.939-13.034 11.053-33.274-1.981-45.213-35.28-32.32-81.434-50.17-129.277-50.003-38.733 0.016-76.554 11.744-108.496 33.648-31.962 21.917-56.544 52.989-70.515 89.136-13.969 36.144-16.674 75.674-7.76 113.386s29.034 71.846 57.709 97.91c13.078 11.888 33.318 10.922 45.206-2.157zM324.57 700.010c7.965-15.776 1.632-35.023-14.144-42.988-76.060-38.404-130.564-94.033-166.217-140.589-17.773-23.21-30.683-43.933-39.085-58.717-2.054-3.616-3.836-6.87-5.35-9.712 3.765-7.053 9.174-16.637 16.308-27.965 16.033-25.466 40.597-59.472 74.548-93.424 67.718-67.718 172.016-134.627 321.373-134.627h0.259c69.898-0.57 138.918 15.533 201.344 46.979 15.786 7.949 35.024 1.6 42.976-14.182 7.949-15.786 1.6-35.027-14.182-42.976-71.475-36.003-150.502-54.454-230.531-53.821-170.57 0.038-290.231 77.11-366.493 153.373-38.049 38.048-65.485 76.042-83.452 104.576-8.999 14.294-15.668 26.285-20.142 34.829-2.238 4.272-3.931 7.69-5.095 10.106-0.582 1.21-1.032 2.17-1.352 2.861l-0.383 0.835-0.161 0.358-0.016 0.035c-0.007 0.016-0.013 0.032 29.229 13.027-29.254 12.97-29.25 12.979-29.245 12.989l0.038 0.086 0.073 0.163 0.224 0.493c0.184 0.406 0.438 0.954 0.762 1.645 0.648 1.376 1.577 3.315 2.795 5.75 2.435 4.877 6.028 11.766 10.831 20.221 9.598 16.89 24.088 40.118 43.915 66.010 39.548 51.642 101.044 114.811 188.184 158.808 15.776 7.965 35.023 1.634 42.989-14.143zM64.003 447.987l-29.245 12.989c-3.665-8.269-3.67-17.722 0.003-25.984l29.242 12.995zM423.917 760.76c29.117 4.874 58.592 7.296 88.115 7.239-0.010 0 0.010 0 0 0l-0.032-32v32c0.010 0 0.022 0 0.032 0 170.627-0.010 290.317-77.095 366.595-153.372 38.048-38.048 65.485-76.042 83.453-104.579 8.998-14.291 15.667-26.285 20.141-34.826 2.24-4.272 3.933-7.69 5.094-10.106 0.582-1.21 1.034-2.17 1.354-2.861l0.384-0.838 0.118-0.262 0.042-0.093 0.016-0.038c0.006-0.013 0.013-0.029-29.229-13.024-29.242 12.995-29.238 13.002-29.235 13.008l-0.243-0.528c-0.227-0.49-0.605-1.29-1.13-2.374-1.056-2.176-2.717-5.498-4.998-9.786-0.058-0.106-0.115-0.214-0.173-0.32-3.763 7.050-9.171 16.627-16.301 27.949-16.032 25.466-40.595 59.472-74.547 93.424-67.718 67.715-172.016 134.626-321.373 134.626h-0.064c-25.949 0.051-51.859-2.076-77.453-6.361-17.43-2.918-33.926 8.847-36.845 26.278-2.915 17.431 8.848 33.926 26.278 36.844zM960 448l29.242-12.998c3.677 8.275 3.677 17.718 0 25.994l-29.242-12.995zM924.221 448c-4.573-8.566-11.558-20.842-21.104-35.437-19.373-29.629-49.024-68.416-90.051-105.114-13.171-11.782-14.298-32.013-2.515-45.184 11.782-13.174 32.013-14.301 45.184-2.518 46.173 41.302 79.322 84.717 100.947 117.789 10.835 16.57 18.845 30.643 24.202 40.704 2.678 5.034 4.701 9.069 6.086 11.923 0.691 1.427 1.226 2.56 1.603 3.376l0.451 0.979 0.138 0.304 0.067 0.148c0.003 0.006 0.013 0.032-29.229 13.030-29.242-12.998-29.235-13.008-29.232-13.021l-0.189 0.416c-0.186 0.397-0.493 1.056-0.928 1.955-0.867 1.802-2.237 4.573-4.122 8.176-0.413 0.784-0.848 1.61-1.309 2.474zM510.557 611.139c3.29 17.363 20.035 28.774 37.398 25.482 40.848-7.738 78.070-28.554 106.051-59.306 27.978-30.752 45.197-69.77 49.053-111.165 1.642-17.597-11.296-33.19-28.893-34.832-17.597-1.638-33.19 11.296-34.829 28.893-2.57 27.568-14.038 53.555-32.672 74.032-18.634 20.48-43.421 34.342-70.624 39.498-17.366 3.29-28.774 20.035-25.485 37.398z" />
<glyph unicode="&#xe90d;" glyph-name="Globe" d="M512 800c-194.404 0-352-157.596-352-352s157.596-352 352-352c194.403 0 352 157.597 352 352s-157.597 352-352 352zM96 448c0 229.75 186.25 416 416 416s416-186.25 416-416c0-229.75-186.25-416-416-416s-416 186.25-416 416zM118 576c0 17.674 14.327 32 32 32h724c17.674 0 32-14.326 32-32s-14.326-32-32-32h-724c-17.673 0-32 14.326-32 32zM118 320c0 17.674 14.327 32 32 32h724c17.674 0 32-14.326 32-32s-14.326-32-32-32h-724c-17.673 0-32 14.326-32 32zM428.278 699.571c-26.874-62.755-44.278-151.676-44.278-251.577s17.405-188.822 44.278-251.578c13.462-31.434 28.672-54.826 43.93-69.894 15.12-14.934 28.531-20.128 39.792-20.128s24.672 5.194 39.792 20.128c15.258 15.069 30.467 38.461 43.93 69.894 26.874 62.755 44.278 151.677 44.278 251.578s-17.405 188.822-44.278 251.577c-13.462 31.434-28.672 54.827-43.93 69.896-15.12 14.933-28.531 20.127-39.792 20.127s-24.672-5.194-39.792-20.127c-15.258-15.069-30.467-38.461-43.93-69.896zM427.235 815.002c23.165 22.877 51.843 38.591 84.765 38.591s61.603-15.714 84.765-38.591c23.027-22.742 42.298-54.061 57.789-90.236 31.034-72.463 49.446-170.338 49.446-276.773s-18.413-204.31-49.446-276.771c-15.491-36.176-34.762-67.494-57.789-90.237-23.165-22.877-51.843-38.592-84.765-38.592s-61.6 15.715-84.765 38.592c-23.027 22.742-42.298 54.061-57.789 90.237-31.034 72.461-49.446 170.336-49.446 276.771s18.413 204.31 49.446 276.773c15.491 36.174 34.762 67.494 57.789 90.236z" />
<glyph unicode="&#xe90e;" glyph-name="InstagramLogo" d="M512 576c-70.691 0-128-57.309-128-128s57.309-128 128-128c70.691 0 128 57.309 128 128s-57.309 128-128 128zM320 448c0 106.038 85.962 192 192 192s192-85.962 192-192c0-106.038-85.962-192-192-192s-192 85.962-192 192zM336 784c-88.365 0-160-71.635-160-160v-352c0-88.365 71.635-160 160-160h352c88.365 0 160 71.635 160 160v352c0 88.365-71.635 160-160 160h-352zM112 624c0 123.712 100.288 224 224 224h352c123.712 0 224-100.288 224-224v-352c0-123.712-100.288-224-224-224h-352c-123.712 0-224 100.288-224 224v352zM720 608c26.509 0 48 21.491 48 48s-21.491 48-48 48c-26.509 0-48-21.49-48-48s21.491-48 48-48z" />
<glyph unicode="&#xe90f;" glyph-name="List" d="M128 448c0 17.674 14.327 32 32 32h704c17.674 0 32-14.326 32-32s-14.326-32-32-32h-704c-17.673 0-32 14.326-32 32zM128 704c0 17.673 14.327 32 32 32h480c17.674 0 32-14.327 32-32s-14.326-32-32-32h-480c-17.673 0-32 14.327-32 32zM128 192c0 17.674 14.327 32 32 32h480c17.674 0 32-14.326 32-32s-14.326-32-32-32h-480c-17.673 0-32 14.326-32 32z" />
<glyph unicode="&#xe910;" glyph-name="LockKey" d="M512 448c-26.509 0-48-21.491-48-48s21.491-48 48-48c26.509 0 48 21.491 48 48s-21.491 48-48 48zM400 400c0 61.856 50.144 112 112 112s112-50.144 112-112c0-61.856-50.144-112-112-112s-112 50.144-112 112zM512 352c17.674 0 32-14.326 32-32v-96c0-17.674-14.326-32-32-32s-32 14.326-32 32v96c0 17.674 14.326 32 32 32zM128 576c0 35.347 28.654 64 64 64h640c35.347 0 64-28.653 64-64v-448c0-35.347-28.653-64-64-64h-640c-35.346 0-64 28.653-64 64v448zM832 576h-640v-448h640v448zM512 864c-29.706 0-58.192-11.8-79.197-32.804s-32.803-49.492-32.803-79.196v-144c0-17.674-14.326-32-32-32s-32 14.326-32 32v144c0 46.678 18.544 91.444 51.549 124.451 33.008 33.006 77.773 51.549 124.451 51.549s91.443-18.543 124.451-51.549c33.005-33.006 51.549-77.773 51.549-124.451v-144c0-17.674-14.326-32-32-32s-32 14.326-32 32v144c0 29.704-11.798 58.192-32.803 79.196s-49.491 32.804-79.197 32.804z" />
<glyph unicode="&#xe911;" glyph-name="EnvelopeSimple" d="M96 736c0 17.673 14.327 32 32 32h768c17.674 0 32-14.327 32-32v-544c0-16.973-6.742-33.251-18.746-45.254s-28.282-18.746-45.254-18.746h-704c-16.974 0-33.252 6.742-45.255 18.746s-18.745 28.282-18.745 45.254v544zM160 704v-512h704v512h-704zM104.411 757.623c11.942 13.028 32.184 13.908 45.212 1.966l362.377-332.178 362.378 332.178c13.027 11.942 33.27 11.062 45.213-1.966s11.059-33.27-1.968-45.212l-384-352.001c-12.234-11.213-31.011-11.213-43.245 0l-384.001 352.001c-13.028 11.942-13.908 32.184-1.966 45.212z" />
<glyph unicode="&#xe912;" glyph-name="DiscordLogo" d="M384 336c26.509 0 48 21.491 48 48s-21.491 48-48 48c-26.509 0-48-21.491-48-48s21.491-48 48-48zM640 336c26.509 0 48 21.491 48 48s-21.491 48-48 48c-26.509 0-48-21.491-48-48s21.491-48 48-48zM511.766 640.013c-69.37 0.513-138.397-9.789-204.594-30.538-16.864-5.283-34.82 4.102-40.106 20.966s4.101 34.82 20.965 40.106c72.467 22.712 148.028 34.003 223.971 33.466 75.939 0.537 151.501-10.753 223.968-33.466 16.864-5.285 26.253-23.241 20.966-40.106s-23.242-26.25-40.106-20.966c-66.198 20.749-135.222 31.051-204.592 30.538h-0.474zM267.067 265.562c5.285 16.864 23.241 26.25 40.106 20.966 66.197-20.749 135.224-31.050 204.594-30.538h0.474c69.37-0.512 138.394 9.789 204.592 30.538 16.864 5.283 34.819-4.102 40.106-20.966s-4.102-34.819-20.966-40.106c-72.467-22.714-148.029-34.003-223.968-33.466-75.942-0.538-151.504 10.752-223.971 33.466-16.864 5.286-26.251 23.242-20.965 40.106zM647.037 806.041c13.776 7.766 29.926 10.193 45.373 6.819 42.163-9.137 83.44-21.956 123.36-38.308 8.986-3.465 17.059-8.951 23.587-16.036 6.602-7.162 11.443-15.759 14.147-25.113l135.549-452.619c3.533-11.792 3.616-24.352 0.234-36.186-3.382-11.837-10.086-22.458-19.315-30.602l-0.166-0.144c-66.16-57.568-155.802-101.139-257.626-126.099-14.144-3.603-29.101-2.202-42.333 3.971-13.174 6.15-23.824 16.653-30.157 29.734l-48.266 95.728c-7.955 15.782-1.613 35.024 14.17 42.979 15.779 7.958 35.024 1.613 42.979-14.166l48.435-96.070c94.013 23.053 173.827 62.643 230.787 112.205l21.005-24.141-21.171 23.997c0.058 0.048 0.099 0.115 0.118 0.189 0.022 0.074 0.022 0.15 0 0.224l-135.555 452.648c-0.112 0.045-0.227 0.091-0.339 0.137-36.573 15.004-74.394 26.76-113.030 35.131l-0.070 0.015c-0.096 0.021-0.195 0.006-0.282-0.042-0.077-0.044-0.138-0.111-0.17-0.192l-31.517-95.35c-5.549-16.779-23.648-25.886-40.429-20.341-16.778 5.549-25.885 23.647-20.339 40.427l31.693 95.878c5.104 14.979 15.546 27.554 29.328 35.326zM345.526 750.292c-0.086 0.048-0.186 0.063-0.282 0.042l-0.070-0.015c-38.634-8.371-76.457-20.127-113.029-35.131-0.113-0.046-0.226-0.092-0.34-0.137l-135.551-452.638c-0.022-0.074-0.025-0.16-0.004-0.234 0.019-0.067 0.054-0.125 0.103-0.173 56.95-49.504 136.707-89.043 230.639-112.077l0.032 0.070 48.4 96c7.958 15.779 27.2 22.125 42.982 14.166 15.779-7.955 22.122-27.197 14.166-42.979l-48.262-95.731c-6.333-13.078-16.982-23.581-30.16-29.731-13.232-6.173-28.189-7.574-42.332-3.971-101.822 24.96-191.466 68.531-257.625 126.099l-0.166 0.144c-9.231 8.144-15.934 18.765-19.316 30.602-3.381 11.834-3.301 24.387 0.232 36.176-0.001-0.003 0.001 0.003 0 0l135.549 452.628c2.705 9.354 7.548 17.951 14.148 25.113 6.53 7.085 14.601 12.572 23.587 16.036 39.932 16.357 81.222 29.178 123.395 38.316 15.437 3.363 31.574 0.934 45.338-6.827 13.786-7.772 24.224-20.348 29.328-35.327l0.096-0.277 31.597-95.6c5.549-16.78-3.558-34.878-20.339-40.427-16.781-5.546-34.88 3.562-40.426 20.341l-31.517 95.35c-0.035 0.081-0.096 0.148-0.173 0.192z" />
<glyph unicode="&#xe913;" glyph-name="Copy" d="M320 800c0 17.673 14.326 32 32 32h512c17.674 0 32-14.327 32-32v-512c0-17.674-14.326-32-32-32h-192c-17.674 0-32 14.326-32 32s14.326 32 32 32h160v448h-448v-160c0-17.674-14.326-32-32-32s-32 14.326-32 32v192zM128 608c0 17.674 14.327 32 32 32h512c17.674 0 32-14.326 32-32v-512c0-17.674-14.326-32-32-32h-512c-17.673 0-32 14.326-32 32v512zM192 576v-448h448v448h-448z" />
<glyph unicode="&#xe914;" glyph-name="ArrowRight" d="M128 448c0 17.674 14.327 32 32 32h704c17.674 0 32-14.326 32-32s-14.326-32-32-32h-704c-17.673 0-32 14.326-32 32zM553.373 758.628c12.496 12.497 32.758 12.497 45.254 0l288-288c12.496-12.496 12.496-32.758 0-45.254l-288-288c-12.496-12.496-32.758-12.496-45.254 0s-12.496 32.758 0 45.254l265.373 265.373-265.373 265.372c-12.496 12.497-12.496 32.758 0 45.255z" />
<glyph unicode="&#xe915;" glyph-name="ArrowLeft" d="M128 448c0 17.674 14.327 32 32 32h704c17.674 0 32-14.326 32-32s-14.326-32-32-32h-704c-17.673 0-32 14.326-32 32zM470.627 758.628c12.496-12.497 12.496-32.758 0-45.255l-265.372-265.372 265.372-265.373c12.496-12.496 12.496-32.758 0-45.254s-32.758-12.496-45.254 0l-288 288c-12.497 12.496-12.497 32.758 0 45.254l288 288c12.496 12.497 32.758 12.497 45.254 0z" />
</font>
</defs>
</svg>
