<svg width="32" height="32" fill="none" xmlns="http://www.w3.org/2000/svg"><path d="M12 19.5a1.5 1.5 0 100-3 1.5 1.5 0 000 3zm8 0a1.5 1.5 0 100-3 1.5 1.5 0 000 3z" fill="#fff"/><path fill-rule="evenodd" clip-rule="evenodd" d="M15.993 10a20.86 20.86 0 00-6.394.954 1 1 0 01-.598-1.909 22.862 22.862 0 017-1.045 22.862 22.862 0 016.998 1.045 1 1 0 11-.598 1.909A20.86 20.86 0 0016.008 10h-.015zM8.346 21.701a1 1 0 011.253-.655c2.069.648 4.226.97 6.394.954h.014a20.862 20.862 0 006.394-.954 1 1 0 01.598 1.909A22.86 22.86 0 0116 24a22.86 22.86 0 01-6.999-1.046 1 1 0 01-.655-1.253z" fill="#fff"/><path fill-rule="evenodd" clip-rule="evenodd" d="M20.22 4.811c.43-.242.935-.318 1.418-.213 1.317.286 2.607.686 3.855 1.197a1.962 1.962 0 011.179 1.286l4.236 14.144a2.013 2.013 0 01-.596 2.088l-.006.004c-2.067 1.8-4.868 3.16-8.05 3.94a1.976 1.976 0 01-2.266-1.053l-1.508-2.991a1 1 0 011.786-.9l1.512 3 .002.002c2.937-.72 5.432-1.958 7.212-3.507l.656.755-.662-.75a.011.011 0 00.004-.006V21.8L24.756 7.655l-.01-.005a21.048 21.048 0 00-3.533-1.097h-.002a.012.012 0 00-.014.006l-.985 2.98a1 1 0 01-1.899-.628l.99-2.996c.16-.468.486-.86.917-1.104zm-9.422 1.742a.012.012 0 00-.01 0h-.001a21.05 21.05 0 00-3.543 1.102L3.008 21.8v.007c0 .002.002.004.003.005 1.78 1.547 4.272 2.783 7.208 3.503v-.003l1.513-3a1 1 0 011.786.9l-1.508 2.992a1.975 1.975 0 01-2.266 1.054c-3.182-.78-5.983-2.142-8.05-3.94l-.006-.005a2.013 2.013 0 01-.596-2.087L5.328 7.08a1.963 1.963 0 011.18-1.286 23.05 23.05 0 013.855-1.197 2.013 2.013 0 012.334 1.317l.003.009.987 2.987a1 1 0 11-1.899.628l-.985-2.98a.013.013 0 00-.005-.006z" fill="#fff"/><path d="M12 19.5a1.5 1.5 0 100-3 1.5 1.5 0 000 3zm8 0a1.5 1.5 0 100-3 1.5 1.5 0 000 3z" fill="#fff"/><path fill-rule="evenodd" clip-rule="evenodd" d="M15.993 10a20.86 20.86 0 00-6.394.954 1 1 0 01-.598-1.909 22.862 22.862 0 017-1.045 22.862 22.862 0 016.998 1.045 1 1 0 11-.598 1.909A20.86 20.86 0 0016.008 10h-.015zM8.346 21.701a1 1 0 011.253-.655c2.069.648 4.226.97 6.394.954h.014a20.862 20.862 0 006.394-.954 1 1 0 01.598 1.909A22.86 22.86 0 0116 24a22.86 22.86 0 01-6.999-1.046 1 1 0 01-.655-1.253z" fill="#fff"/><path fill-rule="evenodd" clip-rule="evenodd" d="M20.22 4.811c.43-.242.935-.318 1.418-.213 1.317.286 2.607.686 3.855 1.197a1.962 1.962 0 011.179 1.286l4.236 14.144a2.013 2.013 0 01-.596 2.088l-.006.004c-2.067 1.8-4.868 3.16-8.05 3.94a1.976 1.976 0 01-2.266-1.053l-1.508-2.991a1 1 0 011.786-.9l1.512 3 .002.002c2.937-.72 5.432-1.958 7.212-3.507l.656.755-.662-.75a.011.011 0 00.004-.006V21.8L24.756 7.655l-.01-.005a21.048 21.048 0 00-3.533-1.097h-.002a.012.012 0 00-.014.006l-.985 2.98a1 1 0 01-1.899-.628l.99-2.996c.16-.468.486-.86.917-1.104zm-9.422 1.742a.012.012 0 00-.01 0h-.001a21.05 21.05 0 00-3.543 1.102L3.008 21.8v.007c0 .002.002.004.003.005 1.78 1.547 4.272 2.783 7.208 3.503v-.003l1.513-3a1 1 0 011.786.9l-1.508 2.992a1.975 1.975 0 01-2.266 1.054c-3.182-.78-5.983-2.142-8.05-3.94l-.006-.005a2.013 2.013 0 01-.596-2.087L5.328 7.08a1.963 1.963 0 011.18-1.286 23.05 23.05 0 013.855-1.197 2.013 2.013 0 012.334 1.317l.003.009.987 2.987a1 1 0 11-1.899.628l-.985-2.98a.013.013 0 00-.005-.006z" fill="#fff"/></svg>