<svg width="32" height="32" fill="none" xmlns="http://www.w3.org/2000/svg"><path fill-rule="evenodd" clip-rule="evenodd" d="M4.543 10.793C6.927 8.409 10.667 6 16 6c5.333 0 9.073 2.41 11.457 4.793a18.922 18.922 0 012.608 3.268 15.949 15.949 0 01.789 1.404l.042.09.012.026.004.008v.003h.001c0 .001 0 .002-.913.408.914.406.914.407.913.407v.001l-.001.003-.004.008-.012.026-.042.09a15.949 15.949 0 01-.789 1.404 18.922 18.922 0 01-2.608 3.268C25.073 23.591 21.333 26 16 26c-5.333 0-9.073-2.41-11.457-4.793a18.919 18.919 0 01-2.608-3.268 15.958 15.958 0 01-.789-1.404 6.623 6.623 0 01-.042-.09l-.012-.026-.004-.008v-.003h-.001c0-.001 0-.002.913-.408a89.897 89.897 0 01-.913-.407v-.001l.001-.003.004-.008.012-.026.042-.09a15.958 15.958 0 01.789-1.404 18.919 18.919 0 012.608-3.268zM2 16l-.914-.406a1 1 0 000 .812L2 16zm1.118 0c.118.22.287.52.51.873a16.92 16.92 0 002.33 2.92C8.072 21.909 11.332 24 16 24s7.927-2.09 10.043-4.207a16.915 16.915 0 002.33-2.92c.222-.353.391-.653.509-.873-.118-.22-.287-.52-.51-.873a16.915 16.915 0 00-2.33-2.92C23.928 10.091 20.668 8 16 8s-7.927 2.09-10.043 4.207a16.92 16.92 0 00-2.33 2.92 14.67 14.67 0 00-.509.873zM30 16l.914.406a1 1 0 000-.812L30 16z" fill="#fff"/><path fill-rule="evenodd" clip-rule="evenodd" d="M16 12a4 4 0 100 8 4 4 0 000-8zm-6 4a6 6 0 1112 0 6 6 0 01-12 0z" fill="#fff"/></svg>