<svg width="32" height="32" fill="none" xmlns="http://www.w3.org/2000/svg"><path fill-rule="evenodd" clip-rule="evenodd" d="M16 16a1.5 1.5 0 100 3 1.5 1.5 0 000-3zm-3.5 1.5a3.5 3.5 0 117 0 3.5 3.5 0 01-7 0z" fill="#fff"/><path fill-rule="evenodd" clip-rule="evenodd" d="M16 19a1 1 0 011 1v3a1 1 0 11-2 0v-3a1 1 0 011-1z" fill="#fff"/><path fill-rule="evenodd" clip-rule="evenodd" d="M4 12a2 2 0 012-2h20a2 2 0 012 2v14a2 2 0 01-2 2H6a2 2 0 01-2-2V12zm22 0H6v14h20V12z" fill="#fff"/><path fill-rule="evenodd" clip-rule="evenodd" d="M16 3a3.5 3.5 0 00-3.5 3.5V11a1 1 0 11-2 0V6.5a5.5 5.5 0 0111 0V11a1 1 0 11-2 0V6.5A3.5 3.5 0 0016 3z" fill="#fff"/></svg>