<svg width="32" height="32" fill="none" xmlns="http://www.w3.org/2000/svg"><path fill-rule="evenodd" clip-rule="evenodd" d="M9.873 19.919a1 1 0 01-.63 1.266c-1.694.57-2.595 1.993-3.077 3.44a9.645 9.645 0 00-.376 1.585 9.633 9.633 0 001.585-.376c1.447-.482 2.87-1.383 3.44-3.078a1 1 0 011.895.638c-.855 2.542-2.97 3.76-4.703 4.338a11.801 11.801 0 01-3.291.58h-.027c-.001 0-.002 0-.002-1h-1v-.028a4.863 4.863 0 01.01-.27 11.801 11.801 0 01.571-3.021c.578-1.734 1.796-3.848 4.338-4.703a1 1 0 011.267.629zm-5.185 7.394h-1a1 1 0 001 1v-1zM26.474 5.526c-1.16-.167-4.018-.23-6.942 2.693L11.752 16 16 20.25l7.78-7.781c2.924-2.924 2.861-5.781 2.694-6.942zm.29-1.979c-1.596-.231-5.155-.233-8.646 3.258L9.63 15.293a1 1 0 000 1.414l5.663 5.662a1 1 0 001.414 0l8.488-8.487c3.49-3.491 3.489-7.05 3.258-8.646a1.975 1.975 0 00-1.69-1.689z" fill="#fff"/><path fill-rule="evenodd" clip-rule="evenodd" d="M23.075 13.588a1 1 0 011 1v8.089a2 2 0 01-.595 1.395l-4.036 4.048a2 2 0 01-3.375-1.024l-1.05-5.236a1 1 0 111.961-.394l1.05 5.24 4.045-4.057v-8.061a1 1 0 011-1zM9.323 7.925h8.089a1 1 0 110 2h-8.06l-.009.008-4.048 4.036h.001l5.238 1.05a1 1 0 01-.393 1.961l-5.236-1.05h-.001a2 2 0 01-1.024-3.374l.001-.002L7.928 8.52a2 2 0 011.395-.595z" fill="#fff"/></svg>