<svg width="32" height="32" fill="none" xmlns="http://www.w3.org/2000/svg"><path fill-rule="evenodd" clip-rule="evenodd" d="M6 12.45a1 1 0 011 1V26h18V13.45a1 1 0 112 0V26a2 2 0 01-2 2H7a2 2 0 01-2-2V13.45a1 1 0 011-1zM3 5a1 1 0 011-1h24a1 1 0 110 2H4a1 1 0 01-1-1z" fill="#fff"/><path fill-rule="evenodd" clip-rule="evenodd" d="M4 7a1 1 0 011 1v2a3 3 0 006 0V8a1 1 0 112 0v2a5 5 0 11-10 0V8a1 1 0 011-1z" fill="#fff"/><path fill-rule="evenodd" clip-rule="evenodd" d="M12 7a1 1 0 011 1v2a3 3 0 006 0V8a1 1 0 112 0v2a5 5 0 11-10 0V8a1 1 0 011-1z" fill="#fff"/><path fill-rule="evenodd" clip-rule="evenodd" d="M20 7a1 1 0 011 1v2a3 3 0 006 0V8a1 1 0 112 0v2a5 5 0 11-10 0V8a1 1 0 011-1z" fill="#fff"/></svg>