<svg width="32" height="32" fill="none" xmlns="http://www.w3.org/2000/svg"><path fill-rule="evenodd" clip-rule="evenodd" d="M16 5C9.925 5 5 9.925 5 16s4.925 11 11 11 11-4.925 11-11S22.075 5 16 5zM3 16C3 8.82 8.82 3 16 3s13 5.82 13 13-5.82 13-13 13S3 23.18 3 16z" fill="#fff"/><path fill-rule="evenodd" clip-rule="evenodd" d="M16 11a4 4 0 100 8 4 4 0 000-8zm-6 4a6 6 0 1112 0 6 6 0 01-12 0z" fill="#fff"/><path fill-rule="evenodd" clip-rule="evenodd" d="M16 20.999a8 8 0 00-7.133 4.379 1 1 0 01-1.783-.906 10 10 0 0117.833 0 1 1 0 01-1.783.905A8 8 0 0016 21z" fill="#fff"/></svg>