<svg width="100" height="100" fill="none" xmlns="http://www.w3.org/2000/svg"><path d="M81.25 81.25h-62.5A6.25 6.25 0 0112.5 75V31.25A6.25 6.25 0 0118.75 25h12.5l6.25-9.375h25L68.75 25h12.5a6.25 6.25 0 016.25 6.25V75a6.25 6.25 0 01-6.25 6.25z" stroke="#fff" stroke-width="3" stroke-linecap="round" stroke-linejoin="round"/><path d="M50 65.625c7.767 0 14.063-6.296 14.063-14.063C64.063 43.797 57.766 37.5 50 37.5c-7.767 0-14.063 6.296-14.063 14.063 0 7.766 6.297 14.062 14.063 14.062z" stroke="#fff" stroke-width="3" stroke-linecap="round" stroke-linejoin="round"/></svg>