<svg width="100" height="100" fill="none" xmlns="http://www.w3.org/2000/svg"><path d="M14.335 67.577l9.454-53.554a3.084 3.084 0 013.593-2.54l21.563 3.79a3.164 3.164 0 012.539 3.633l-9.492 53.867a14.102 14.102 0 01-16.055 11.445c-7.773-1.25-12.969-8.867-11.602-16.64z" stroke="#fff" stroke-width="3" stroke-linecap="round" stroke-linejoin="round"/><path d="M46.21 48.75l28.476-10.352a3.126 3.126 0 014.024 1.875l7.5 20.547a3.125 3.125 0 01-1.875 3.985l-51.406 18.71" stroke="#fff" stroke-width="3" stroke-linecap="round" stroke-linejoin="round"/><path d="M85.938 63.477V81.25a3.125 3.125 0 01-3.126 3.125H28.126" stroke="#fff" stroke-width="3" stroke-linecap="round" stroke-linejoin="round"/><path d="M28.125 75a4.688 4.688 0 100-9.375 4.688 4.688 0 000 9.375z" fill="#fff"/></svg>