<svg width="32" height="32" fill="none" xmlns="http://www.w3.org/2000/svg"><defs><linearGradient id="a" x1="0%" y1="0%" x2="100%" y2="100%"><stop offset="0%" stop-color="#f09433"/><stop offset="25%" stop-color="#e6683c"/><stop offset="50%" stop-color="#dc2743"/><stop offset="75%" stop-color="#cc2366"/><stop offset="100%" stop-color="#bc1888"/></linearGradient></defs><path fill-rule="evenodd" clip-rule="evenodd" d="M16 12a4 4 0 100 8 4 4 0 000-8zm-6 4a6 6 0 1112 0 6 6 0 01-12 0z" fill="url(#a)"/><path fill-rule="evenodd" clip-rule="evenodd" d="M10.5 5.5a5 5 0 00-5 5v11a5 5 0 005 5h11a5 5 0 005-5v-11a5 5 0 00-5-5h-11zm-7 5a7 7 0 017-7h11a7 7 0 017 7v11a7 7 0 01-7 7h-11a7 7 0 01-7-7v-11z" fill="url(#a)"/><path d="M22.5 11a1.5 1.5 0 100-3 1.5 1.5 0 000 3z" fill="url(#a)"/></svg>